#!OML:ASF F:\VICON\USERDATA\INSTALL\rory3\rory3.ASF
:FULLY-SPECIFIED
:DEGREES
581
root 4.6011 15.7949 1.98601 21.9166 -7.37998 -3.6974
lowerback 13.1197 -0.762515 3.53563
upperback 3.99365 -0.530787 0.822048
thorax -3.17704 -0.273347 -1.05325
lowerneck -13.8168 -0.899563 -1.32762
upperneck 36.1369 -0.0408715 -2.73638
head 14.8444 -0.604157 -0.916644
rclavicle 1.69961e-014 -1.47101e-014
rhumerus -71.3351 47.3638 -80.1976
rradius 60.9202
rwrist -10.7902
rhand -10.3566 -40.4673
rfingers 7.12502
rthumb 15.6402 -69.8551
lclavicle 1.69961e-014 -1.47101e-014
lhumerus -63.5534 -61.53 77.2137
lradius 53.2778
lwrist 28.2362
lhand -19.3906 -31.9297
lfingers 7.12502
lthumb 6.9281 -2.06312
rfemur -77.0377 0.563709 19.9448
rtibia 39.4256
rfoot 39.1397 2.66088
rtoes 6.00614
lfemur -56.54 -0.371396 -26.6005
ltibia 61.4159
lfoot -24.5873 5.07726
ltoes 13.8939
582
root 4.60103 15.7931 1.98646 21.8702 -7.39133 -3.67624
lowerback 13.0826 -0.774832 3.52963
upperback 4.05432 -0.551642 0.812446
thorax -3.0943 -0.281834 -1.0573
lowerneck -13.9287 -0.898741 -1.61474
upperneck 36.2784 -0.0564429 -2.43833
head 14.9393 -0.611566 -0.747887
rclavicle -9.14409e-015 -1.82882e-014
rhumerus -71.1054 47.5283 -79.8893
rradius 60.7711
rwrist -10.621
rhand -10.0974 -40.5895
rfingers 7.12502
rthumb 15.8898 -69.9576
lclavicle -9.14409e-015 -1.82882e-014
lhumerus -63.4482 -61.4403 76.9463
lradius 53.2276
lwrist 28.1227
lhand -20.3157 -32.5035
lfingers 7.12502
lthumb 6.03504 -2.60948
rfemur -77.0386 0.500419 20.002
rtibia 39.5098
rfoot 39.0854 2.69338
rtoes 5.98576
lfemur -56.5026 -0.433582 -26.6017
ltibia 61.4546
lfoot -24.6522 5.14152
ltoes 14.0012
583
root 4.59695 15.786 1.97789 21.7863 -7.42616 -3.6582
lowerback 13.219 -0.790504 3.43624
upperback 4.09461 -0.578516 0.832258
thorax -3.12648 -0.295268 -0.978855
lowerneck -13.9715 -0.895949 -2.1089
upperneck 36.4173 -0.0921877 -1.91532
head 15.0181 -0.625535 -0.450423
rclavicle -1.98785e-014 3.77691e-015
rhumerus -70.9554 48.372 -79.7873
rradius 60.5261
rwrist -10.9908
rhand -10.0406 -40.5036
rfingers 7.12502
rthumb 15.9445 -69.8673
lclavicle -1.98785e-014 3.77691e-015
lhumerus -63.3957 -61.4447 76.748
lradius 53.204
lwrist 28.1804
lhand -20.4564 -32.6013
lfingers 7.12502
lthumb 5.8992 -2.70344
rfemur -77.0228 0.586044 19.922
rtibia 39.5765
rfoot 39.058 2.54912
rtoes 6.07307
lfemur -56.508 -0.445065 -26.5795
ltibia 61.5163
lfoot -24.6622 5.10168
ltoes 14.1805
584
root 4.59264 15.7784 1.97127 21.7754 -7.41794 -3.67915
lowerback 13.2746 -0.79639 3.41752
upperback 4.1151 -0.585784 0.858373
thorax -3.13506 -0.29889 -0.939507
lowerneck -13.8673 -0.860006 -2.15782
upperneck 36.4076 -0.0522409 -1.85181
head 14.9892 -0.606569 -0.407831
rclavicle -5.26779e-015 2.18663e-015
rhumerus -70.8416 47.952 -79.3458
rradius 60.3393
rwrist -10.506
rhand -10.0321 -40.359
rfingers 7.12502
rthumb 15.9528 -69.7221
lclavicle -5.26779e-015 2.18663e-015
lhumerus -63.2369 -61.5283 76.481
lradius 53.1564
lwrist 28.2547
lhand -19.7092 -32.3976
lfingers 7.12502
lthumb 6.62053 -2.52105
rfemur -77.0663 0.660484 19.8758
rtibia 39.6366
rfoot 39.0697 2.27165
rtoes 6.34621
lfemur -56.5785 -0.436177 -26.5363
ltibia 61.589
lfoot -24.6287 5.09973
ltoes 14.1454
585
root 4.59161 15.7771 1.97084 21.7742 -7.40163 -3.67722
lowerback 13.2218 -0.770122 3.465
upperback 4.19396 -0.551044 0.83142
thorax -3.02281 -0.279398 -1.0008
lowerneck -13.7938 -0.832541 -1.73255
upperneck 36.2064 0.0280159 -2.3192
head 14.8746 -0.57453 -0.661194
rclavicle -3.598e-014 1.74931e-014
rhumerus -70.6494 47.9424 -79.0698
rradius 60.147
rwrist -10.7856
rhand -9.61696 -40.6417
rfingers 7.12502
rthumb 16.3525 -69.9723
lclavicle -3.598e-014 1.74931e-014
lhumerus -62.8062 -61.7643 75.9652
lradius 53.0985
lwrist 28.258
lhand -19.4145 -32.5217
lfingers 7.12502
lthumb 6.905 -2.65431
rfemur -77.0849 0.636611 19.8818
rtibia 39.6969
rfoot 39.0353 1.99536
rtoes 6.89865
lfemur -56.6004 -0.443176 -26.538
ltibia 61.6441
lfoot -24.6501 5.1399
ltoes 13.9868
586
root 4.58967 15.7741 1.96876 21.7619 -7.46031 -3.62672
lowerback 13.2103 -0.7349 3.39173
upperback 4.26904 -0.518616 0.790269
thorax -2.9365 -0.261478 -1.00807
lowerneck -13.7742 -0.800322 -1.39477
upperneck 35.997 0.11681 -2.71697
head 14.7706 -0.542031 -0.867832
rclavicle -7.25564e-015 -1.78906e-014
rhumerus -70.3765 48.0238 -78.7391
rradius 59.9648
rwrist -10.6823
rhand -9.34338 -40.8935
rfingers 7.12502
rthumb 16.6159 -70.2022
lclavicle -7.25564e-015 -1.78906e-014
lhumerus -62.4856 -61.9664 75.49
lradius 53.0884
lwrist 28.2655
lhand -19.7087 -32.5342
lfingers 7.12502
lthumb 6.621 -2.65766
rfemur -77.1066 0.63885 19.8509
rtibia 39.7456
rfoot 38.9979 1.87314
rtoes 7.17166
lfemur -56.612 -0.423699 -26.6008
ltibia 61.6978
lfoot -24.6786 5.22613
ltoes 11.9487
587
root 4.58697 15.7662 1.96464 21.8344 -7.57914 -3.58579
lowerback 13.1222 -0.657949 3.28966
upperback 4.36205 -0.439407 0.733763
thorax -2.78798 -0.21956 -1.02288
lowerneck -14.0228 -0.802891 -1.2221
upperneck 35.9526 0.094944 -2.78829
head 14.806 -0.537679 -0.932703
rclavicle -2.04748e-014 7.55382e-015
rhumerus -70.0516 48.1017 -78.4053
rradius 59.7844
rwrist -10.6151
rhand -9.65379 -40.9827
rfingers 7.12502
rthumb 16.317 -70.3163
lclavicle -2.04748e-014 7.55382e-015
lhumerus -62.1205 -62.1952 74.9022
lradius 53.1854
lwrist 28.3136
lhand -19.4635 -31.7854
lfingers 7.12502
lthumb 6.85772 -1.91643
rfemur -77.2477 0.63633 19.9077
rtibia 39.7694
rfoot 39.0337 1.94541
rtoes 6.73055
lfemur -56.7473 -0.37605 -26.6691
ltibia 61.7609
lfoot -24.6644 5.28384
ltoes 13.3703
